<?xml version="1.0" encoding="UTF-8" standalone="no"?>
<!-- Copyright 2017 mathsisfun.com -->
<svg xmlns="http://www.w3.org/2000/svg" width="372.5" height="199.1" version="1.1">
<defs>
<marker style="overflow:visible;" orient="auto" id="id06">
<path d="M 0,0 5,-5 -12.5,0 5,5 Z" transform="matrix(-0.8,0,0,-0.8,-10,0)" style="fill:#c4a000; stroke:#c4a000; stroke-width:1pt;" />
</marker>
<marker style="overflow:visible;" orient="auto" id="id05">
<path d="M 0,0 5,-5 -12.5,0 5,5 Z" transform="matrix(-0.8,0,0,-0.8,-10,0)" style="fill:#c4a000; stroke:#c4a000; stroke-width:1pt;" />
</marker>
<marker style="overflow:visible;" orient="auto" id="id04">
<path d="M 0,0 5,-5 -12.5,0 5,5 Z" transform="matrix(-0.8,0,0,-0.8,-10,0)" style="fill:#729fcf; stroke:#729fcf; stroke-width:1pt;" />
</marker>
<marker style="overflow:visible;" orient="auto" id="id03">
<path d="M 8.7,4 -2.2,0 8.7,-4 C 7,-1.6 7,1.6 8.7,4 Z" transform="matrix(-1.1,0,0,-1.1,-1.1,0)" style="fill:#fcaf3e; stroke:#fcaf3e; stroke-width:0.63; stroke-linejoin:round;" />
</marker>
<marker style="overflow:visible;" orient="auto" id="id07">
<path d="M 8.7,4 -2.2,0 8.7,-4 C 7,-1.6 7,1.6 8.7,4 Z" transform="matrix(-1.1,0,0,-1.1,-1.1,0)" style="fill:#fcaf3e; stroke:#fcaf3e; stroke-width:0.63; stroke-linejoin:round;" />
</marker>
<marker style="overflow:visible;" orient="auto" id="id01">
<path d="M 8.7,4 -2.2,0 8.7,-4 C 7,-1.6 7,1.6 8.7,4 Z" transform="matrix(-1.1,0,0,-1.1,-1.1,0)" style="fill:#729fcf; stroke:#729fcf; stroke-width:0.63; stroke-linejoin:round;" />
</marker>
<marker style="overflow:visible;" orient="auto" id="id02">
<path d="M 8.7,4 -2.2,0 8.7,-4 C 7,-1.6 7,1.6 8.7,4 Z" transform="matrix(-1.1,0,0,-1.1,-1.1,0)" style="fill:#729fcf; stroke:#729fcf; stroke-width:0.63; stroke-linejoin:round;" />
</marker>
</defs>
<linearGradient gradientTransform="scale(4.5607,0.219265)" x1="0" y1="114" x2="228" y2="114" gradientUnits="userSpaceOnUse">
<stop offset="0" style="stop-color:indigo;" />
<stop offset="25%" style="stop-color:blue;" />
<stop offset="100%" style="stop-color:white;" />
</linearGradient>
<path d="m 223.7,108 h 148.8" style="fill:none; stroke:#e5e6e8; stroke-width:0.59; stroke-dasharray:4.7, 0.6;" />
<path d="m 223.7,60.6 h 148.8" style="fill:none; stroke:#e5e6e8; stroke-width:0.59; stroke-dasharray:4.7, 0.6;" />
<path d="m 223.7,36.9 h 148.8" style="fill:none; stroke:#e5e6e8; stroke-width:0.59; stroke-dasharray:4.7, 0.6;" />
<path d="m 223.7,131.8 h 148.8" style="fill:none; stroke:#e5e6e8; stroke-width:0.59; stroke-dasharray:4.7, 0.6;" />
<path d="m 223.7,84.3 h 148.8" style="fill:none; stroke:#e5e6e8; stroke-width:0.59; stroke-dasharray:4.7, 0.6;" />
<text x="215.4" y="423.2" transform="scale(0.99993,1.00007)" style="font-family:Georgia; font-size:19.5px; overflow:visible; fill:#ff0000; stroke-width:3;" />
  

<text x="215.2" y="158.6" transform="scale(0.99993,1.00007)" style="font-family:Georgia; font-size:8.8px; fill:#121513; stroke-width:1;">0</text>
<text x="209.4" y="134.9" transform="scale(0.99993,1.00007)" style="font-family:Georgia; font-size:8.8px; fill:#121513; stroke-width:1;">10</text>
<text x="209.4" y="111" transform="scale(0.99993,1.00007)" style="font-family:Georgia; font-size:8.8px; fill:#121513; stroke-width:1;">20</text>
<text x="209.4" y="87.2" transform="scale(0.99993,1.00007)" style="font-family:Georgia; font-size:8.8px; fill:#121513; stroke-width:1;">30</text>
<text x="209.6" y="63.7" transform="scale(0.99993,1.00007)" style="font-family:Georgia; font-size:8.8px; fill:#121513; stroke-width:1;">40</text>
<text x="209.6" y="40" transform="scale(0.99993,1.00007)" style="font-family:Georgia; font-size:8.8px; fill:#121513; stroke-width:1;">50</text>
<path d="M 24.2,22.2 H 165.3" style="fill:none; stroke:#e5e6e8; stroke-width:1.07; stroke-dasharray:8.6, 1.1;" />
<path d="M 24.2,154.2 H 165.3" style="fill:none; stroke:#e5e6e8; stroke-width:1.07; stroke-dasharray:8.6, 1.1;" />
<path d="M 24.2,101.4 H 165.3" style="fill:none; stroke:#e5e6e8; stroke-width:0.57; stroke-dasharray:4.6, 0.6;" />
<path d="M 24.2,75 H 165.3" style="fill:none; stroke:#e5e6e8; stroke-width:0.57; stroke-dasharray:4.6, 0.6;" />
<path d="M 24.2,48.6 H 165.3" style="fill:none; stroke:#e5e6e8; stroke-width:0.57; stroke-dasharray:4.6, 0.6;" />
<path d="M 24.2,127.8 H 165.3" style="fill:none; stroke:#e5e6e8; stroke-width:0.57; stroke-dasharray:4.6, 0.6;" />
<path d="M 24.2,35.4 H 165.3" style="fill:none; stroke:#e5e6e8; stroke-width:0.57; stroke-dasharray:4.6, 0.6;" />
<path d="M 24.2,114.6 H 165.3" style="fill:none; stroke:#e5e6e8; stroke-width:0.57; stroke-dasharray:4.6, 0.6;" />
<path d="M 24.2,88.2 H 165.3" style="fill:none; stroke:#e5e6e8; stroke-width:0.57; stroke-dasharray:4.6, 0.6;" />
<path d="M 24.2,61.8 H 165.3" style="fill:none; stroke:#e5e6e8; stroke-width:0.57; stroke-dasharray:4.6, 0.6;" />
<path d="M 24.2,141 H 165.3" style="fill:none; stroke:#e5e6e8; stroke-width:0.57; stroke-dasharray:4.6, 0.6;" />
<rect x="63.1" y="94" width="17.5" height="60.3" style="opacity:0.51; fill:#729fcf; stroke:black; stroke-width:0.71;" />
<rect x="37.9" y="110.8" width="17.5" height="43.5" style="opacity:0.51; fill:#9ade00; stroke:black; stroke-width:0.71;" />
<rect x="88.2" y="53.2" width="17.5" height="101.1" style="opacity:0.51; fill:#ce5c00; stroke:black; stroke-width:0.71;" />
<rect x="113.3" y="110.9" width="17.5" height="43.4" style="opacity:0.51; fill:#5c3566; stroke:black; stroke-width:0.71;" />
<rect x="138.4" y="66.7" width="17.5" height="87.6" style="opacity:0.51; fill:#c4a000; stroke:black; stroke-width:0.71;" />
<text x="10.9" y="158" transform="scale(0.99993,1.00007)" style="font-family:Georgia; font-size:10.5px; fill:black; stroke-width:1;">$0</text>
<text x="-0.8" y="131.7" transform="scale(0.99993,1.00007)" style="font-family:Georgia; font-size:10.5px; fill:black; stroke-width:1;">$100</text>
<text x="-0.8" y="105.4" transform="scale(0.99993,1.00007)" style="font-family:Georgia; font-size:10.5px; fill:black; stroke-width:1;">$200</text>
<text x="-0.8" y="79" transform="scale(0.99993,1.00007)" style="font-family:Georgia; font-size:10.5px; fill:black; stroke-width:1;">$300</text>
<text x="-0.8" y="52.7" transform="scale(0.99993,1.00007)" style="font-family:Georgia; font-size:10.5px; fill:black; stroke-width:1;">$400</text>
<text x="-0.8" y="26.4" transform="scale(0.99993,1.00007)" style="font-family:Georgia; font-size:10.5px; fill:black; stroke-width:1;">$500</text>
<rect x="26.8" y="22.7" width="138.9" height="131.5" style="fill:none; stroke:black; stroke-width:0.81;" />
<text x="35.6" y="165.6" transform="scale(0.99993,1.00007)" style="font-family:Georgia; font-size:9.2px; fill:black; stroke-width:1;">USA</text>
<text x="90.4" y="165.6" transform="scale(0.99993,1.00007)" style="font-family:Georgia; font-size:9.2px; fill:black; stroke-width:1;">UK</text>
<text x="60.7" y="165.6" transform="scale(0.99993,1.00007)" style="font-family:Georgia; font-size:9.2px; fill:black; stroke-width:1;">India</text>
<text x="115.4" y="165.6" transform="scale(0.99993,1.00007)" style="font-family:Georgia; font-size:9.2px; fill:black; stroke-width:1;">NZ</text>
<text x="134.2" y="165.6" transform="scale(0.99993,1.00007)" style="font-family:Georgia; font-size:9.2px; fill:black; stroke-width:1;">Japan</text>
<rect x="56.6" y="181.3" width="73.3" height="9.9" style="color:black; overflow:visible; fill:white; stroke-width:2.17;" />
<text x="60.5" y="191.1" transform="scale(0.99993,1.00007)" style="font-family:Georgia; font-size:14.7px; color:black; overflow:visible; fill:#729fcf; stroke-width:1px;">Categories</text>
<rect x="264.8" y="179.9" width="60.1" height="9.9" style="color:black; overflow:visible; fill:white; stroke-width:2.17;" />
<text x="272.4" y="195.9" transform="scale(0.99993,1.00007)" style="font-family:Georgia; text-align:center; font-size:14.7px; color:black; overflow:visible; fill:#c4a000; stroke-width:1px;">Ranges</text>
<path d="m 51.1,62.7 4,38.9" style="marker-end:url(#id01); fill:none; stroke:#729fcf; stroke-width:1.7;" />
<path d="m 66.6,63.1 16.5,27.2" style="marker-end:url(#id02); fill:none; stroke:#729fcf; stroke-width:1.49;" />
<path d="m 251.7,61.2 6.5,40.8" style="marker-end:url(#id03); fill:#fcaf3e; stroke:#fcaf3e; stroke-width:1.7;" />
<text x="221.5" y="167.1" transform="scale(0.99993,1.00007)" style="font-family:Georgia; font-size:10.2px; fill:#013397; stroke-width:1;">100</text>
<text x="248.6" y="167.1" transform="scale(0.99993,1.00007)" style="font-family:Georgia; font-size:10.2px; fill:#013397; stroke-width:1;">150</text>
<text x="275.1" y="167.1" transform="scale(0.99993,1.00007)" style="font-family:Georgia; font-size:10.2px; fill:#013397; stroke-width:1;">200</text>
<text x="301.8" y="167.1" transform="scale(0.99993,1.00007)" style="font-family:Georgia; font-size:10.2px; fill:#013397; stroke-width:1;">250</text>
<text x="328.4" y="167.1" transform="scale(0.99993,1.00007)" style="font-family:Georgia; font-size:10.2px; fill:#013397; stroke-width:1;">300</text>
<text x="355" y="167.1" transform="scale(0.99993,1.00007)" style="font-family:Georgia; font-size:10.2px; fill:#013397; stroke-width:1;">350</text>
<path d="m 58.5,187.2 h -28.9" style="marker-end:url(#id04); fill:none; stroke:#729fcf; stroke-width:1px;" />
<path d="m 324.5,187.2 h 39.1" style="marker-end:url(#id05); fill:none; stroke:#c4a000; stroke-width:1px;" />
<path d="m 261.4,187.2 h -33.8" style="marker-end:url(#id06); fill:none; stroke:#c4a000; stroke-width:1px;" />
<text x="35.9" y="54.7" transform="scale(0.99993,1.00007)" style="font-family:Georgia; font-size:18.7px; color:black; overflow:visible; fill:#729fcf; stroke-width:1px;">Gaps</text>
<text x="231.2" y="54.7" transform="scale(0.99993,1.00007)" style="font-family:Georgia; font-size:18.7px; color:black; overflow:visible; fill:#c4a000; stroke-width:1px;">No Gaps</text>
<text x="43.1" y="16.1" transform="scale(0.99993,1.00007)" style="font-family:Georgia; font-size:21.3px; color:black; overflow:visible; fill:#729fcf; stroke-width:1px;">Bar Graph</text>
<text x="241.6" y="16.1" transform="scale(0.99993,1.00007)" style="font-family:Georgia; font-size:21.3px; color:black; overflow:visible; fill:#c4a000; stroke-width:1px;">Histogram</text>
<rect x="227.2" y="104.1" width="27" height="52.2" style="color:black; overflow:visible; fill:#b1afff; fill-opacity:0.61; stroke:black; stroke-width:0.5;" />
<rect x="254.1" y="111.8" width="26.9" height="44.5" style="color:black; overflow:visible; fill:#b1afff; fill-opacity:0.61; stroke:black; stroke-width:0.5;" />
<rect x="281" y="90" width="26.9" height="66.3" style="color:black; overflow:visible; fill:#b1afff; fill-opacity:0.61; stroke:black; stroke-width:0.5;" />
<rect x="307.9" y="37.7" width="27" height="118.6" style="color:black; overflow:visible; fill:#b1afff; fill-opacity:0.61; stroke:black; stroke-width:0.5;" />
<rect x="334.8" y="129" width="27" height="27.3" style="color:black; overflow:visible; fill:#b1afff; fill-opacity:0.61; stroke:black; stroke-width:0.5;" />
<path d="m 276.1,60.5 4.8,37.1" style="marker-end:url(#id07); fill:#fcaf3e; stroke:#fcaf3e; stroke-width:1.74;" />
<text x="269.2" y="182.4" transform="scale(0.99993,1.00007)" style="font-family:Georgia; text-align:center; font-size:14.7px; color:black; overflow:visible; fill:#c4a000; stroke-width:1px;">Number</text>
<path d="m 131.6,187.2 h 28.9" style="marker-end:url(#id04); fill:none; stroke:#729fcf; stroke-width:1px;" />
</svg>
