<?xml version="1.0" encoding="UTF-8" standalone="no"?>
<!-- Copyright 2017 mathsisfun.com -->
<svg xmlns="http://www.w3.org/2000/svg" width="211.3" height="180.3" version="1.1">
<defs>
</defs>
<path d="M 36.9,0 V 149.3 H 211.3" style="fill:none; stroke:black; stroke-width:1.03;"/>
<path d="m 54.1,148.7 v 10.6" style="color:black; overflow:visible; fill:#729fcf; fill-opacity:0.75; stroke:#729fcf; stroke-width:1.03;"/>
<path d="m 85.3,148.7 v 10.6" style="color:black; overflow:visible; fill:#729fcf; fill-opacity:0.75; stroke:#729fcf; stroke-width:1.03;"/>
<path d="m 116.6,148.7 v 10.6" style="color:black; overflow:visible; fill:#729fcf; fill-opacity:0.75; stroke:#729fcf; stroke-width:1.03;"/>
<path d="m 147.8,148.7 v 10.6" style="color:black; overflow:visible; fill:#729fcf; fill-opacity:0.75; stroke:#729fcf; stroke-width:1.03;"/>
<path d="m 179.1,148.7 v 10.6" style="color:black; overflow:visible; fill:#729fcf; fill-opacity:0.75; stroke:#729fcf; stroke-width:1.03;"/>
<path d="m 210.3,148.7 v 10.6" style="color:black; overflow:visible; fill:#729fcf; fill-opacity:0.75; stroke:#729fcf; stroke-width:1.03;"/>
<path d="m 25.9,10.3 h 10.6" style="color:black; overflow:visible; fill:none; stroke:#c4a000; stroke-width:1.03;"/>
<path d="m 25.9,28.1 h 10.6" style="color:black; overflow:visible; fill:none; stroke:#c4a000; stroke-width:1.03;"/>
<path d="m 25.9,45.9 h 10.6" style="color:black; overflow:visible; fill:none; stroke:#c4a000; stroke-width:1.03;"/>
<path d="m 25.9,63.7 h 10.6" style="color:black; overflow:visible; fill:none; stroke:#c4a000; stroke-width:1.03;"/>
<path d="m 25.9,81.6 h 10.6" style="color:black; overflow:visible; fill:none; stroke:#c4a000; stroke-width:1.03;"/>
<path d="m 25.9,99.4 h 10.6" style="color:black; overflow:visible; fill:none; stroke:#c4a000; stroke-width:1.03;"/>
<path d="m 25.9,117.2 h 10.6" style="color:black; overflow:visible; fill:none; stroke:#c4a000; stroke-width:1.03;"/>
<path d="m 25.9,135 h 10.6" style="color:black; overflow:visible; fill:none; stroke:#c4a000; stroke-width:1.03;"/>
<path d="m 107.1,59.7 a 2.4,2.4 0 0 1 -2.4,2.4 2.4,2.4 0 0 1 -2.4,-2.3 2.4,2.4 0 0 1 2.3,-2.4 2.4,2.4 0 0 1 2.4,2.3" style="color:black; overflow:visible; fill:#0000ff; stroke-width:1.03;"/>
<path d="m 58.6,113.3 a 2.4,2.4 0 0 1 -2.4,2.4 2.4,2.4 0 0 1 -2.4,-2.3 2.4,2.4 0 0 1 2.3,-2.4 2.4,2.4 0 0 1 2.4,2.3" style="color:black; overflow:visible; fill:#0000ff; stroke-width:1.03;"/>
<path d="m 80.9,115.6 a 2.4,2.4 0 0 1 -2.4,2.4 2.4,2.4 0 0 1 -2.4,-2.3 2.4,2.4 0 0 1 2.3,-2.4 2.4,2.4 0 0 1 2.4,2.3" style="color:black; overflow:visible; fill:#0000ff; stroke-width:1.03;"/>
<path d="m 92,96.9 a 2.4,2.4 0 0 1 -2.4,2.4 2.4,2.4 0 0 1 -2.4,-2.3 2.4,2.4 0 0 1 2.3,-2.4 2.4,2.4 0 0 1 2.4,2.3" style="color:black; overflow:visible; fill:#0000ff; stroke-width:1.03;"/>
<path d="m 120.7,101.5 a 2.4,2.4 0 0 1 -2.4,2.4 2.4,2.4 0 0 1 -2.4,-2.3 2.4,2.4 0 0 1 2.3,-2.4 2.4,2.4 0 0 1 2.4,2.3" style="color:black; overflow:visible; fill:#0000ff; stroke-width:1.03;"/>
<path d="m 148.3,82.8 a 2.4,2.4 0 0 1 -2.4,2.4 2.4,2.4 0 0 1 -2.4,-2.3 2.4,2.4 0 0 1 2.3,-2.4 2.4,2.4 0 0 1 2.4,2.3" style="color:black; overflow:visible; fill:#0000ff; stroke-width:1.03;"/>
<path d="m 150,57 a 2.4,2.4 0 0 1 -2.4,2.4 2.4,2.4 0 0 1 -2.4,-2.3 2.4,2.4 0 0 1 2.3,-2.4 2.4,2.4 0 0 1 2.4,2.3" style="color:black; overflow:visible; fill:#0000ff; stroke-width:1.03;"/>
<path d="m 177.6,34.7 a 2.4,2.4 0 0 1 -2.4,2.4 2.4,2.4 0 0 1 -2.4,-2.3 2.4,2.4 0 0 1 2.3,-2.4 2.4,2.4 0 0 1 2.4,2.3" style="color:black; overflow:visible; fill:#0000ff; stroke-width:1.03;"/>
<path d="m 198.1,54.7 a 2.4,2.4 0 0 1 -2.4,2.4 2.4,2.4 0 0 1 -2.4,-2.3 2.4,2.4 0 0 1 2.3,-2.4 2.4,2.4 0 0 1 2.4,2.3" style="color:black; overflow:visible; fill:#0000ff; stroke-width:1.03;"/>
<path d="m 137.7,27.7 a 2.4,2.4 0 0 1 -2.4,2.4 2.4,2.4 0 0 1 -2.4,-2.3 2.4,2.4 0 0 1 2.3,-2.4 2.4,2.4 0 0 1 2.4,2.3" style="color:black; overflow:visible; fill:#0000ff; stroke-width:1.03;"/>
<path d="m 196.3,31.2 a 2.4,2.4 0 0 1 -2.4,2.4 2.4,2.4 0 0 1 -2.4,-2.3 2.4,2.4 0 0 1 2.3,-2.4 2.4,2.4 0 0 1 2.4,2.3" style="color:black; overflow:visible; fill:#0000ff; stroke-width:1.03;"/>
<text x="98.9" y="175.5" style="font-family:'Comic Sans MS'; font-size:17.6px; color:black; overflow:visible; fill:#729fcf; stroke-width:0.55px;">Weight</text>
<text x="-95.6" y="13.8" transform="rotate(-90)" style="font-family:'Comic Sans MS'; font-size:17.6px; color:black; overflow:visible; fill:#c4a000; stroke-width:0.55px;">Height</text>
</svg>
